<?xml version="1.0" standalone="no"?>
<!DOCTYPE svg PUBLIC "-//W3C//DTD SVG 20010904//EN"
 "http://www.w3.org/TR/2001/REC-SVG-20010904/DTD/svg10.dtd">
<svg version="1.0" xmlns="http://www.w3.org/2000/svg"
 width="512.000000pt" height="512.000000pt" viewBox="0 0 512.000000 512.000000"
 preserveAspectRatio="xMidYMid meet">
<metadata>
</metadata>
<g transform="translate(0.000000,512.000000) scale(0.100000,-0.100000)"
fill="#000000" stroke="none">
<path d="M66 4791 c-46 -31 -66 -69 -66 -131 0 -62 20 -100 66 -131 27 -18 53
-19 366 -19 l337 0 14 -47 c8 -27 171 -596 362 -1266 l348 -1218 -41 -87 c-47
-99 -61 -153 -62 -232 0 -151 84 -306 212 -386 85 -54 141 -64 360 -64 l203
-1 -54 -19 c-118 -43 -207 -123 -264 -239 -31 -64 -32 -71 -32 -191 0 -122 1
-127 34 -195 45 -92 124 -171 216 -216 68 -33 73 -34 195 -34 122 0 127 1 195
34 92 45 171 124 216 216 33 68 34 73 34 195 0 120 -1 127 -32 191 -57 116
-146 196 -264 239 l-54 19 660 0 660 0 -54 -19 c-118 -43 -207 -123 -264 -239
-31 -64 -32 -71 -32 -191 0 -122 1 -127 34 -195 45 -92 124 -171 216 -216 68
-33 73 -34 195 -34 122 0 127 1 195 34 92 45 171 124 216 216 33 68 34 73 34
195 0 120 -1 127 -32 191 -57 116 -146 196 -264 239 l-54 19 280 1 c257 0 282
2 309 19 46 31 66 69 66 131 0 62 -20 100 -66 131 -28 18 -72 19 -1309 19
-847 0 -1295 4 -1325 11 -52 12 -87 40 -106 86 -20 47 -17 71 16 140 l29 63
1332 0 c1309 0 1332 0 1364 20 17 11 39 34 48 52 32 63 617 2135 617 2185 0
54 -22 95 -66 124 -28 18 -85 19 -1951 19 l-1922 0 -20 68 c-11 37 -45 155
-75 262 -53 184 -59 197 -96 233 l-39 37 -428 0 c-402 0 -430 -1 -457 -19z"/>
</g>
</svg>
