<?xml version="1.0" standalone="no"?>
<!DOCTYPE svg PUBLIC "-//W3C//DTD SVG 20010904//EN"
 "http://www.w3.org/TR/2001/REC-SVG-20010904/DTD/svg10.dtd">
<svg version="1.0" xmlns="http://www.w3.org/2000/svg"
 width="512.000000pt" height="512.000000pt" viewBox="0 0 512.000000 512.000000"
 preserveAspectRatio="xMidYMid meet">
<metadata>
</metadata>
<g transform="translate(0.000000,512.000000) scale(0.100000,-0.100000)"
fill="#000000" stroke="none">
<path d="M1695 5100 c-816 -132 -1446 -713 -1644 -1515 -52 -213 -67 -525 -35
-742 68 -458 261 -845 579 -1157 614 -603 1549 -746 2318 -355 54 28 125 67
159 89 61 38 78 42 78 16 0 -7 13 -39 30 -72 25 -50 122 -152 652 -680 582
-580 627 -623 688 -650 76 -34 210 -45 288 -24 139 37 265 163 302 302 21 78
9 211 -25 288 -27 61 -67 104 -644 683 -615 617 -670 667 -750 683 -17 4 -31
9 -31 12 0 2 14 28 32 56 372 595 418 1330 122 1946 -297 618 -849 1023 -1537
1124 -147 22 -435 20 -582 -4z m423 -500 c367 -33 675 -175 932 -429 506 -502
585 -1285 190 -1878 -386 -579 -1124 -814 -1769 -564 -740 287 -1124 1087
-884 1846 141 446 512 817 959 958 132 42 261 64 439 76 11 0 71 -4 133 -9z"/>
</g>
</svg>
